<!DOCTYPE svg PUBLIC "-//W3C//DTD SVG 1.1//EN" "http://www.w3.org/Graphics/SVG/1.1/DTD/svg11.dtd">
<!-- Uploaded to: SVG Repo, www.svgrepo.com, Transformed by: SVG Repo Mixer Tools -->
<svg width="800px" height="800px" viewBox="0 0 24.00 24.00" fill="none" xmlns="http://www.w3.org/2000/svg">
<g id="SVGRepo_bgCarrier" stroke-width="0" transform="translate(0,0), scale(1)">
<path transform="translate(0, 0), scale(0.75)" d="M16,26.127652945763927C17.723557702667925,25.664470477285768,19.455103188247413,25.524401652780007,21.102321207413777,24.837479567776846C22.942787061732492,24.06996936128605,25.069987214043717,23.533531800682116,26.184996516191433,21.880310480318528C27.312352526427844,20.20878272878058,26.81789455705479,18.00124788146321,27.062728204490508,16C27.343049604706803,13.70867846724808,28.837371166856517,11.253035689172826,27.73314770382907,9.22586401475265C26.632838322791127,7.205877947599622,23.67679135130971,7.303755432143523,21.692262238768098,6.140712592447899C19.691325439434593,4.9680539489232025,18.312166983399838,2.5305941386909523,16,2.3495963209253894C13.682415275955801,2.168174399173874,11.805658533148494,4.086829524018926,9.76885551652488,5.207341165318553C7.689332458613498,6.351354491950076,5.469189597101067,7.235523413082368,3.8930273495395777,9.01003608118523C2.110867405023532,11.016470001945564,0.4566165732963412,13.330398763959362,0.18257207554929522,15.999999999999996C-0.10029021031537072,18.755499614776447,0.7318862287354213,21.63520957534861,2.367523480957672,23.870713987990328C3.9448639557266376,26.026541379909663,6.388225072843088,27.647165061313647,9.023606287205915,28.08346836416342C11.447592317250855,28.484773915408315,13.627206369181266,26.765308656048916,16,26.127652945763927" fill="#ffe08a" strokewidth="0"/>
</g>
<g id="SVGRepo_tracerCarrier" stroke-linecap="round" stroke-linejoin="round" stroke="#CCCCCC" stroke-width="0.096"/>
<g id="SVGRepo_iconCarrier"> <path d="M15.7993 3C17.2899 3 18.5894 4.01393 18.9518 5.45974L19.337 7H20.25C20.6297 7 20.9435 7.28215 20.9932 7.64823L21 7.75C21 8.1297 20.7178 8.44349 20.3518 8.49315L20.25 8.5H19.714L19.922 9.3265C20.5708 9.72128 21.0041 10.435 21.0041 11.25V19.7468C21.0041 20.7133 20.2206 21.4968 19.2541 21.4968H17.75C16.7835 21.4968 16 20.7133 16 19.7468L15.999 18.5H8.004L8.00408 19.7468C8.00408 20.7133 7.22058 21.4968 6.25408 21.4968H4.75C3.7835 21.4968 3 20.7133 3 19.7468V11.25C3 10.4352 3.43316 9.72148 4.08177 9.32666L4.289 8.5H3.75C3.3703 8.5 3.05651 8.21785 3.00685 7.85177L3 7.75C3 7.3703 3.28215 7.05651 3.64823 7.00685L3.75 7H4.663L5.04898 5.46176C5.41068 4.01497 6.71062 3 8.20194 3H15.7993ZM6.504 18.5H4.499L4.5 19.7468C4.5 19.8848 4.61193 19.9968 4.75 19.9968H6.25408C6.39215 19.9968 6.50408 19.8848 6.50408 19.7468L6.504 18.5ZM19.504 18.5H17.499L17.5 19.7468C17.5 19.8848 17.6119 19.9968 17.75 19.9968H19.2541C19.3922 19.9968 19.5041 19.8848 19.5041 19.7468L19.504 18.5ZM18.7541 10.5H5.25C4.83579 10.5 4.5 10.8358 4.5 11.25V17H19.5041V11.25C19.5041 10.8358 19.1683 10.5 18.7541 10.5ZM10.249 14H13.7507C14.165 14 14.5007 14.3358 14.5007 14.75C14.5007 15.1297 14.2186 15.4435 13.8525 15.4932L13.7507 15.5H10.249C9.83478 15.5 9.49899 15.1642 9.49899 14.75C9.49899 14.3703 9.78115 14.0565 10.1472 14.0068L10.249 14H13.7507H10.249ZM17 12C17.5522 12 17.9999 12.4477 17.9999 13C17.9999 13.5522 17.5522 13.9999 17 13.9999C16.4477 13.9999 16 13.5522 16 13C16 12.4477 16.4477 12 17 12ZM6.99997 12C7.55225 12 7.99995 12.4477 7.99995 13C7.99995 13.5522 7.55225 13.9999 6.99997 13.9999C6.4477 13.9999 6 13.5522 6 13C6 12.4477 6.4477 12 6.99997 12ZM15.7993 4.5H8.20194C7.39892 4.5 6.69895 5.04652 6.50419 5.82556L5.71058 9H18.2929L17.4968 5.82448C17.3017 5.04596 16.6019 4.5 15.7993 4.5Z" fill="#212121"/> </g>
</svg>