<!DOCTYPE svg PUBLIC "-//W3C//DTD SVG 1.1//EN" "http://www.w3.org/Graphics/SVG/1.1/DTD/svg11.dtd">
<!-- Uploaded to: SVG Repo, www.svgrepo.com, Transformed by: SVG Repo Mixer Tools -->
<svg version="1.0" id="Layer_1" xmlns="http://www.w3.org/2000/svg" xmlns:xlink="http://www.w3.org/1999/xlink" width="256px" height="256px" viewBox="0 0 64.00 64.00" enable-background="new 0 0 64 64" xml:space="preserve" fill="#000000">
<g id="SVGRepo_bgCarrier" stroke-width="0">
<path transform="translate(0, 0), scale(2)" d="M16,26.79033825173974C18.011360669056252,26.564719731456876,20.087895536871635,28.126398532610242,21.957394148700896,27.35086620053793C23.825576355275658,26.575879958647505,25.226463543816998,24.68952334407289,25.764264779415917,22.73978534550224C26.281825015020416,20.863428819873423,24.254358437468888,18.93794229552758,24.79380923591325,17.067761757502822C25.49277016112531,14.644587812926321,29.15544491862926,13.53614348181766,29.146494704483878,11.01419220665105C29.138599225317073,8.789439432098789,26.601340958250915,7.358843393657709,24.754948317838565,6.117706228030814C23.026330815759607,4.955737002187183,21.00098760324874,4.0028926473457185,18.922771563444098,4.141849627019456C16.95031538592444,4.273735122905005,15.690580951973935,6.499847470169123,13.745670585245131,6.853826031174247C11.610758872253127,7.242385313373429,8.960388636801103,4.7819611015883945,7.359120343135384,6.246463129499066C5.744640432474989,7.723048354183956,7.606288173424156,10.543417796753541,7.33743810029371,12.714723612584532C7.142351448832281,14.290296109095127,6.035055564310143,15.62684302147351,6.001114582112395,17.214084497452045C5.964714112383314,18.91634328779816,6.669366970878225,20.48077547701911,7.1363591608270305,22.11812952487618C7.785302943926939,24.39343680615384,7.204215266595444,27.667683967157437,9.297273508481613,28.7709783312922C11.388609913471313,29.87336507952511,13.650639441896237,27.053870924365285,16,26.79033825173974" fill="#ffe08a" strokewidth="0"/>
</g>
<g id="SVGRepo_tracerCarrier" stroke-linecap="round" stroke-linejoin="round"/>
<g id="SVGRepo_iconCarrier"> <g> <path fill="#231F20" d="M62.242,47.758l0.014-0.014c-5.847-4.753-12.84-8.137-20.491-9.722C44.374,35.479,46,31.932,46,28 c1.657,0,3-1.343,3-3v-2c0-0.886-0.391-1.673-1-2.222V12c0-6.627-5.373-12-12-12h-8c-6.627,0-12,5.373-12,12v8.778 c-0.609,0.549-1,1.336-1,2.222v2c0,1.657,1.343,3,3,3c0,3.932,1.626,7.479,4.236,10.022c-7.652,1.586-14.646,4.969-20.492,9.722 l0.014,0.014C0.672,48.844,0,50.344,0,52v8c0,2.211,1.789,4,4,4h56c2.211,0,4-1.789,4-4v-8C64,50.344,63.328,48.844,62.242,47.758z M20,28v-1c0-0.553-0.447-1-1-1h-1c-0.553,0-1-0.447-1-1v-2c0-0.553,0.447-1,1-1h1c0.553,0,1-0.447,1-1v-1v-1c0-2.209,1.791-4,4-4 c2.088,0,3.926-1.068,5-2.687C30.074,13.932,31.912,15,34,15h6c2.209,0,4,1.791,4,4v1v1c0,0.553,0.447,1,1,1h1c0.553,0,1,0.447,1,1 v2c0,0.553-0.447,1-1,1h-1c-0.553,0-1,0.447-1,1v1c0,6.627-5.373,12-12,12S20,34.627,20,28z M24.285,39.678 C26.498,41.143,29.147,42,32,42s5.502-0.857,7.715-2.322c1.66,0.281,3.297,0.63,4.892,1.084C41.355,43.983,36.911,46,31.973,46 c-4.932,0-9.371-2.011-12.621-5.226C20.96,40.315,22.61,39.961,24.285,39.678z"/> <path fill="#231F20" d="M24.537,21.862c0.475,0.255,1.073,0.068,1.345-0.396C25.91,21.419,26.18,21,26.998,21 c0.808,0,1.096,0.436,1.111,0.458C28.287,21.803,28.637,22,28.999,22c0.154,0,0.311-0.035,0.457-0.111 c0.491-0.253,0.684-0.856,0.431-1.347C29.592,19.969,28.651,19,26.998,19c-1.691,0-2.618,0.983-2.9,1.564 C23.864,21.047,24.063,21.609,24.537,21.862z"/> <path fill="#231F20" d="M34.539,21.862c0.475,0.255,1.073,0.068,1.345-0.396C35.912,21.419,36.182,21,37,21 c0.808,0,1.096,0.436,1.111,0.458C38.289,21.803,38.639,22,39.001,22c0.154,0,0.311-0.035,0.457-0.111 c0.491-0.253,0.684-0.856,0.431-1.347C39.594,19.969,38.653,19,37,19c-1.691,0-2.618,0.983-2.9,1.564 C33.866,21.047,34.065,21.609,34.539,21.862z"/> </g> </g>
</svg>